<svg width="284" height="100" viewBox="0 0 284 100" fill="none" xmlns="http://www.w3.org/2000/svg">
<path d="M113.492 78L101.686 41.5498H111.057L115.853 57.1924C116.247 58.6189 116.64 60.1192 117.034 61.6933C117.427 63.2674 117.772 64.9153 118.067 66.637C118.313 65.4564 118.534 64.3742 118.731 63.3904C118.977 62.4066 119.247 61.4474 119.542 60.5128C119.838 59.5289 120.182 58.4222 120.575 57.1924L125.593 41.5498H134.742L139.612 57.1924C139.711 57.5367 139.858 58.127 140.055 58.9633C140.301 59.7503 140.547 60.6111 140.793 61.5458C141.039 62.4804 141.26 63.415 141.457 64.3496C141.703 65.235 141.875 65.9975 141.973 66.637C142.17 65.7024 142.416 64.6448 142.711 63.4642C143.006 62.2836 143.301 61.1522 143.597 60.07C143.941 58.9387 144.211 57.9794 144.408 57.1924L149.278 41.5498H158.796L146.179 78H137.767L132.75 62.2098C132.012 59.7995 131.422 57.7581 130.979 56.0856C130.536 54.3639 130.241 53.0358 130.094 52.1012C129.946 52.9866 129.676 54.1672 129.282 55.6429C128.889 57.1186 128.225 59.3568 127.29 62.3574L122.272 78H113.492ZM170.298 78H161.296V23.1033H170.372V46.2721C171.503 44.5012 173.077 43.0993 175.094 42.0663C177.16 40.9841 179.521 40.443 182.177 40.443C186.654 40.443 190.048 41.7957 192.36 44.5012C194.721 47.2067 195.901 50.896 195.901 55.5691V78H186.9V57.7089C186.9 55.6429 186.58 53.9458 185.94 52.6177C185.301 51.2895 184.416 50.3057 183.284 49.6662C182.153 48.9776 180.825 48.6332 179.3 48.6332C177.43 48.6332 175.807 49.0514 174.43 49.8876C173.102 50.6746 172.069 51.7814 171.331 53.208C170.642 54.6345 170.298 56.2578 170.298 58.0778V78ZM201.795 78V41.5498H210.796V78H201.795ZM206.222 34.245C204.697 34.245 203.393 33.7285 202.311 32.6955C201.278 31.6133 200.762 30.3098 200.762 28.7848C200.762 27.2599 201.278 25.981 202.311 24.948C203.393 23.915 204.697 23.3985 206.222 23.3985C207.747 23.3985 209.026 23.915 210.059 24.948C211.141 25.981 211.682 27.2599 211.682 28.7848C211.682 30.3098 211.141 31.6133 210.059 32.6955C209.026 33.7285 207.747 34.245 206.222 34.245ZM214.342 66.9321H222.901C222.95 68.5062 223.54 69.7606 224.672 70.6952C225.803 71.6298 227.377 72.0971 229.394 72.0971C231.558 72.0971 233.182 71.7036 234.264 70.9166C235.395 70.1295 235.961 69.0719 235.961 67.7438C235.961 66.8583 235.666 66.0713 235.075 65.3826C234.485 64.694 233.378 64.1775 231.755 63.8331L225.188 62.2836C221.892 61.5458 219.433 60.3652 217.81 58.7419C216.235 57.0694 215.448 54.7821 215.448 51.8798C215.448 49.5187 216.063 47.4773 217.293 45.7556C218.572 44.0339 220.294 42.7304 222.458 41.8449C224.622 40.9103 227.107 40.443 229.91 40.443C232.616 40.443 235.002 40.9349 237.068 41.9187C239.134 42.9025 240.732 44.2799 241.864 46.0507C243.044 47.8216 243.659 49.8876 243.708 52.2487H235.149C235.149 50.6746 234.657 49.4449 233.674 48.5595C232.69 47.6248 231.312 47.1575 229.541 47.1575C227.771 47.1575 226.393 47.551 225.409 48.3381C224.426 49.1251 223.934 50.1827 223.934 51.5109C223.934 53.5277 225.508 54.905 228.656 55.6429L235.223 57.1924C238.273 57.8811 240.56 58.9878 242.085 60.5128C243.659 62.0377 244.446 64.202 244.446 67.0059C244.446 69.4654 243.807 71.6052 242.528 73.4253C241.249 75.1961 239.453 76.5735 237.141 77.5573C234.829 78.4919 232.173 78.9592 229.173 78.9592C224.647 78.9592 221.032 77.8524 218.326 75.6389C215.67 73.4253 214.342 70.523 214.342 66.9321ZM257.424 78H248.496V23.1033H257.424V56.8235L271.591 41.5498H282.881L269.009 56.0118L282.585 78H272.255L262.737 62.6525L257.424 68.1865V78Z" fill="#FCFEFF"/>
<path d="M51.1773 24.5063C64.612 31.9241 57.2231 50.8839 51.8493 59.4366C47.0896 38.423 33.2332 30.2074 26.8999 28.7263C29.3946 24.2289 37.7427 17.0885 51.1773 24.5063Z" fill="#FCFEFF"/>
<path d="M73.9219 58.6027C71.5464 73.7642 51.2028 73.3056 41.328 71.1811C59.4464 59.5213 62.4274 43.6906 61.653 37.2328C66.7324 38.0388 76.2975 43.4413 73.9219 58.6027Z" fill="#FCFEFF"/>
<path d="M47.9387 92.1997C32.7098 94.0952 28.8992 75.708 28.8992 63.4103C45.1014 77.613 59.1048 77.04 65.0991 74.5156C65.7244 79.6205 63.1677 90.3041 47.9387 92.1997Z" fill="#FCFEFF"/>
<path d="M8.35148 76.1886C2.57896 61.9692 22.4017 52.8403 31.9603 49.5754C19.6626 68.0218 25.8846 83.0506 29.8743 88.1872C25.1053 90.1124 14.124 90.408 8.35148 76.1886Z" fill="#FCFEFF"/>
<path d="M12.7123 34.8344C24.6227 25.1568 39.887 39.8517 45.8039 48.038C24.5373 44.5794 11.2763 53.6076 7.53063 58.9249C4.29522 54.9271 0.801977 44.512 12.7123 34.8344Z" fill="#FCFEFF"/>
</svg>
